# xmcd CD database file
#
# Track frame offsets:
#	150
#	18821
#	34769
#	46483
#	68257
#	81463
#	100262
#	118208
#	137422
#	148867
#	170443
#	183692
#	198388
#	216693
#
# Disc length: 3097 seconds
#
# Revision: 6
# Processed by: cddbd v1.5.2PL0 Copyright (c) Steve Scherf et al.
# Submitted via: CDex 1.51
#
DISCID=cf0c170e
DTITLE=Dion - Bronx In Blue
DYEAR=2006
DGENRE=Blues
TTITLE0=Walkin' Blues
TTITLE1=You're The One
TTITLE2=I Let My Baby Do That
TTITLE3=Who Do You Love
TTITLE4=Built For Comfort
TTITLE5=Crossroads
TTITLE6=Travelin' Riverside Blues
TTITLE7=You Better Watch Yourself
TTITLE8=How Many More Years
TTITLE9=Terraplane Blues
TTITLE10=Honky Tonk Blues
TTITLE11=Baby, What You Want Me To Do
TTITLE12=Statesboro Blues
TTITLE13=If You Wanna Rock and Roll
EXTD=YEAR: 2006
EXTT0=
EXTT1=
EXTT2=
EXTT3=
EXTT4=
EXTT5=
EXTT6=
EXTT7=
EXTT8=
EXTT9=
EXTT10=
EXTT11=
EXTT12=
EXTT13=
PLAYORDER=
